<svg width="1920" height="1313" viewBox="0 0 1920 1313" fill="none" xmlns="http://www.w3.org/2000/svg">
<path d="M158.944 1311.89C111.537 1130.49 76.3521 764.811 314.867 753.369C613.01 739.066 715.428 212.174 1024.56 238.889C1271.87 260.261 1403.62 -7.78186 1438.59 -144.475" stroke="#3C4489"/>
<path d="M78.139 1265.03C30.7322 1083.63 30.0218 721.01 268.536 709.568C566.679 695.265 669.097 168.373 978.231 195.088C1225.54 216.46 1357.29 -51.5826 1392.25 -188.276" stroke="#FF4D00"/>
<path d="M37.2181 1293.34C-14.8217 1094.2 -53.4316 692.784 208.447 680.209C535.796 664.491 648.278 86.0891 987.692 115.397C1259.22 138.844 1403.9 -155.408 1442.29 -305.465" stroke="#3C4489"/>
<path d="M1588.62 -249.178C1669.68 -106.742 1782.11 194.036 1583.33 257.655C1334.84 337.18 1367.57 805.201 1100.53 852.58C886.891 890.484 836.291 1146.6 837.696 1269.92" stroke="#3C4489"/>
<path d="M1637.64 -222.678C1718.71 -80.242 1831.14 220.536 1632.35 284.155C1383.87 363.679 1416.59 831.7 1149.55 879.08C935.917 916.983 885.097 1163.71 886.502 1287.03" stroke="#FF4D00"/>
<path d="M1695.59 -261.051C1784.57 -104.694 1907.98 225.487 1689.73 295.348C1416.9 382.675 1452.79 896.462 1159.59 948.502C925.036 990.134 998.11 1151.16 999.639 1286.53" stroke="#3C4489"/>
<path d="M1392.17 311.5C1394.09 308.167 1398.91 308.167 1400.83 311.5L1413.39 333.25C1415.31 336.583 1412.91 340.75 1409.06 340.75H1383.94C1380.09 340.75 1377.69 336.583 1379.61 333.25L1392.17 311.5Z" stroke="#FF4D00" stroke-width="6"/>
<path d="M397.417 450.541C396.421 446.823 399.823 443.421 403.541 444.417L427.8 450.917C431.518 451.914 432.763 456.561 430.041 459.283L412.283 477.041C409.561 479.763 404.914 478.518 403.917 474.8L397.417 450.541Z" stroke="#FF4D00" stroke-width="6"/>
<rect x="796.415" y="297.396" width="30" height="30" rx="8.5" transform="rotate(-60 796.415 297.396)" stroke="#00D1FF" stroke-width="5"/>
<rect x="1419.42" y="647.396" width="30" height="30" rx="8.5" transform="rotate(-60 1419.42 647.396)" stroke="#00D1FF" stroke-width="5"/>
<circle cx="552" cy="689" r="20" stroke="#00D1FF" stroke-width="6"/>
</svg>
