<svg width="375" height="617" viewBox="0 0 375 617" fill="none" xmlns="http://www.w3.org/2000/svg">
<path d="M-683.666 616C-718.651 450.402 -744.616 116.595 -568.602 106.149C-348.584 93.093 -273.003 -387.881 -44.8749 -363.494C137.628 -343.985 234.856 -588.668 260.658 -713.448" stroke="#3C4489"/>
<path d="M-743.297 573.225C-778.281 407.627 -778.805 76.6112 -602.791 66.166C-382.774 53.1095 -307.193 -427.864 -79.0649 -403.478C103.438 -383.968 200.667 -628.651 226.468 -753.432" stroke="#FF4D00"/>
<path d="M-774.287 599.248C-812.552 417.432 -840.794 50.8819 -647.638 39.2082C-406.193 24.6162 -322.895 -503.667 -72.5773 -477.148C127.676 -455.934 234.553 -724.752 262.96 -861.813" stroke="#3C4489"/>
<path d="M454.931 -884.161C514.754 -754.138 597.724 -479.573 451.027 -421.498C267.655 -348.904 291.806 78.3299 94.7389 121.58C-62.915 156.18 -100.256 389.974 -99.2192 502.546" stroke="#3C4489"/>
<path d="M491.11 -859.971C550.933 -729.948 633.904 -455.383 487.206 -397.308C303.834 -324.714 327.985 102.52 130.918 145.77C-26.7359 180.371 -64.2387 405.596 -63.2022 518.167" stroke="#FF4D00"/>
<path d="M533.871 -895C599.54 -752.269 690.612 -450.863 529.546 -387.09C328.214 -307.374 354.694 161.638 138.328 209.143C-34.7654 247.147 19.1602 394.135 20.2888 517.716" stroke="#3C4489"/>
</svg>
