<svg width="21" height="29" viewBox="0 0 21 29" fill="none" xmlns="http://www.w3.org/2000/svg">
<path d="M5.38921 0.19791C5.37779 0.308282 5.36638 1.25596 5.36638 2.30259C5.36638 3.96579 5.35876 4.21698 5.30548 4.2931L5.24839 4.37683H2.64893H0.0456713L0.0228356 4.46056C0.0114178 4.51004 0 5.15324 0 5.8916V7.23129L0.10276 7.27315C0.163655 7.29599 0.650816 7.31502 1.25596 7.32263C2.21506 7.33024 2.32162 7.33785 2.55759 7.41397C3.05998 7.58143 3.37968 7.96583 3.46341 8.51008C3.49005 8.68896 3.50147 10.6262 3.49385 14.6529L3.48244 20.5331L3.3949 20.7233C3.28833 20.9555 3.18557 21.0659 2.98766 21.1724C2.84304 21.2524 2.77834 21.2562 1.71267 21.2676C1.09611 21.2752 0.578503 21.2942 0.559473 21.3095C0.52522 21.3437 0.0380594 24.2096 0.0380594 24.3809C0.0380594 24.4836 0.0532832 24.5026 0.156044 24.5255C0.220745 24.5369 1.11895 24.5483 2.14655 24.5521C4.54049 24.5559 5.1875 24.5826 5.27884 24.6739C5.34354 24.7348 5.34735 24.8909 5.36638 26.8129C5.3816 28.438 5.39682 28.8947 5.43488 28.9328C5.49958 28.9975 7.84785 29.0279 8.00389 28.967L8.10285 28.929L8.11427 26.8661L8.12568 24.8071L8.23225 24.7158L8.33882 24.6244L9.12665 24.6473C9.56052 24.6587 9.95253 24.6739 10.002 24.6853C10.1923 24.7234 10.1999 24.8033 10.1999 26.9461V28.9252L10.3027 28.967C10.4587 29.0279 12.807 28.9975 12.8717 28.9328C12.9098 28.8947 12.925 28.4494 12.9326 26.8129L12.944 24.7424L13.0392 24.6663C13.0924 24.6244 13.218 24.5826 13.3322 24.5712C15.1134 24.3885 15.9202 24.2515 16.7652 23.9965C19.2847 23.2353 20.5901 21.7395 20.9136 19.2466C20.9898 18.6567 20.9898 17.6253 20.9098 17.1001C20.6586 15.4026 19.6501 14.2418 17.8879 13.61C17.5378 13.4844 17.4388 13.4083 17.4959 13.3056C17.5111 13.2751 17.6824 13.1343 17.8689 12.9897C18.6986 12.3465 19.1325 11.6386 19.357 10.5425C19.4484 10.1048 19.4484 9.07336 19.357 8.54434C19.1477 7.31882 18.5387 6.37495 17.5187 5.69749C16.5444 5.04668 15.2961 4.65086 13.5225 4.43392C13.1609 4.38825 13.0277 4.3578 12.9935 4.30833C12.9516 4.25885 12.944 3.84781 12.9402 2.35588C12.9402 1.31686 12.9288 0.361565 12.9174 0.232163L12.8907 8.43207e-07H11.5472H10.2037L10.1923 2.0514C10.1809 4.00766 10.1771 4.10661 10.1086 4.18273C10.0401 4.25885 10.002 4.26265 9.13045 4.26265H8.22464L8.16374 4.14848C8.11427 4.05333 8.10665 3.75266 8.10665 2.01715V8.43207e-07H6.75935H5.41585L5.38921 0.19791ZM11.2846 7.58905C12.1942 7.71084 12.9021 7.94681 13.4159 8.29315C13.69 8.47964 13.9754 8.81456 14.12 9.11523C14.2951 9.4806 14.3484 9.72037 14.3484 10.1352C14.3446 11.5282 13.355 12.3274 11.2427 12.6395C10.8393 12.6966 10.4359 12.7233 9.51866 12.7385L8.32359 12.7613L8.25508 12.67C8.18658 12.5824 8.18277 12.4492 8.18277 10.1581C8.18277 7.78315 8.18277 7.73367 8.25889 7.63852C8.30076 7.58524 8.38449 7.53196 8.44158 7.52054C8.66993 7.48248 10.8774 7.53196 11.2846 7.58905ZM11.4559 15.5701C13.5035 15.73 14.8432 16.3351 15.3456 17.3284C15.7832 18.1962 15.6538 19.2352 15.0259 19.9241C14.3979 20.6092 13.2713 21.0316 11.5624 21.2181C10.9992 21.2828 8.54053 21.3437 8.36546 21.3019C8.31598 21.2866 8.25128 21.2333 8.22844 21.1801C8.19419 21.1077 8.18277 20.3694 8.18277 18.4055C8.18277 15.8251 8.18658 15.7223 8.25508 15.6386C8.32359 15.5511 8.36165 15.5473 8.87545 15.5244C9.52246 15.494 10.7898 15.5168 11.4559 15.5701Z" fill="white"/>
</svg>
