<svg width="111" height="83" viewBox="0 0 111 83" fill="none" xmlns="http://www.w3.org/2000/svg">
<rect width="111" height="83" rx="5" fill="#1A1D3D"/>
<path d="M51.3892 13.1979C51.3778 13.3083 51.3664 14.256 51.3664 15.3026C51.3664 16.9658 51.3588 17.217 51.3055 17.2931L51.2484 17.3768H48.6489H46.0457L46.0228 17.4606C46.0114 17.51 46 18.1532 46 18.8916V20.2313L46.1028 20.2732C46.1637 20.296 46.6508 20.315 47.256 20.3226C48.2151 20.3302 48.3216 20.3379 48.5576 20.414C49.06 20.5814 49.3797 20.9658 49.4634 21.5101C49.49 21.689 49.5015 23.6262 49.4939 27.6529L49.4824 33.5331L49.3949 33.7233C49.2883 33.9555 49.1856 34.0659 48.9877 34.1724C48.843 34.2524 48.7783 34.2562 47.7127 34.2676C47.0961 34.2752 46.5785 34.2942 46.5595 34.3095C46.5252 34.3437 46.0381 37.2096 46.0381 37.3809C46.0381 37.4836 46.0533 37.5026 46.156 37.5255C46.2207 37.5369 47.1189 37.5483 48.1466 37.5521C50.5405 37.5559 51.1875 37.5826 51.2788 37.6739C51.3435 37.7348 51.3473 37.8909 51.3664 39.8129C51.3816 41.438 51.3968 41.8947 51.4349 41.9328C51.4996 41.9975 53.8478 42.0279 54.0039 41.967L54.1028 41.929L54.1143 39.8661L54.1257 37.8071L54.2322 37.7158L54.3388 37.6244L55.1266 37.6473C55.5605 37.6587 55.9525 37.6739 56.002 37.6853C56.1923 37.7234 56.1999 37.8033 56.1999 39.9461V41.9252L56.3027 41.967C56.4587 42.0279 58.807 41.9975 58.8717 41.9328C58.9097 41.8947 58.925 41.4494 58.9326 39.8129L58.944 37.7424L59.0392 37.6663C59.0924 37.6244 59.218 37.5826 59.3322 37.5712C61.1134 37.3885 61.9202 37.2515 62.7652 36.9965C65.2847 36.2353 66.5901 34.7395 66.9136 32.2466C66.9898 31.6567 66.9898 30.6253 66.9098 30.1001C66.6586 28.4026 65.6501 27.2418 63.8879 26.61C63.5378 26.4844 63.4388 26.4083 63.4959 26.3056C63.5111 26.2751 63.6824 26.1343 63.8689 25.9897C64.6986 25.3465 65.1325 24.6386 65.357 23.5425C65.4484 23.1048 65.4484 22.0734 65.357 21.5443C65.1477 20.3188 64.5387 19.375 63.5187 18.6975C62.5444 18.0467 61.2961 17.6509 59.5225 17.4339C59.1609 17.3883 59.0277 17.3578 58.9935 17.3083C58.9516 17.2588 58.944 16.8478 58.9402 15.3559C58.9402 14.3169 58.9288 13.3616 58.9174 13.2322L58.8907 13H57.5472H56.2037L56.1923 15.0514C56.1809 17.0077 56.1771 17.1066 56.1086 17.1827C56.0401 17.2588 56.002 17.2627 55.1305 17.2627H54.2246L54.1637 17.1485C54.1143 17.0533 54.1067 16.7527 54.1067 15.0171V13H52.7594H51.4159L51.3892 13.1979ZM57.2846 20.589C58.1942 20.7108 58.9021 20.9468 59.4159 21.2931C59.69 21.4796 59.9754 21.8146 60.12 22.1152C60.2951 22.4806 60.3484 22.7204 60.3484 23.1352C60.3446 24.5282 59.355 25.3274 57.2427 25.6395C56.8393 25.6966 56.4359 25.7233 55.5187 25.7385L54.3236 25.7613L54.2551 25.67C54.1866 25.5824 54.1828 25.4492 54.1828 23.1581C54.1828 20.7831 54.1828 20.7337 54.2589 20.6385C54.3008 20.5852 54.3845 20.532 54.4416 20.5205C54.6699 20.4825 56.8774 20.532 57.2846 20.589ZM57.4559 28.5701C59.5035 28.73 60.8432 29.3351 61.3456 30.3284C61.7832 31.1962 61.6538 32.2352 61.0259 32.9241C60.3979 33.6092 59.2713 34.0316 57.5624 34.2181C56.9992 34.2828 54.5405 34.3437 54.3655 34.3019C54.316 34.2866 54.2513 34.2333 54.2284 34.1801C54.1942 34.1077 54.1828 33.3694 54.1828 31.4055C54.1828 28.8251 54.1866 28.7223 54.2551 28.6386C54.3236 28.5511 54.3617 28.5473 54.8755 28.5244C55.5225 28.494 56.7898 28.5168 57.4559 28.5701Z" fill="#605EB7"/>
<path d="M38.4766 65C40.875 65 42.2969 63.8203 42.2969 61.8359C42.2969 60.3359 41.3125 59.2578 39.7812 59.0625V59C40.8672 58.8047 41.7266 57.7109 41.7266 56.5391C41.7266 54.8516 40.4219 53.7266 38.4922 53.7266H34.2188V65H38.4766ZM35.625 54.9688H38.1719C39.5391 54.9688 40.3047 55.5859 40.3047 56.7031C40.3047 57.9219 39.3984 58.5859 37.7344 58.5859H35.625V54.9688ZM35.625 63.7578V59.7969H38.1328C39.9297 59.7969 40.8516 60.4609 40.8516 61.7656C40.8516 63.0703 39.9609 63.7578 38.2656 63.7578H35.625ZM44.4297 55.4297C44.9062 55.4297 45.2812 55.0469 45.2812 54.5781C45.2812 54.1016 44.9062 53.7266 44.4297 53.7266C43.9609 53.7266 43.5781 54.1016 43.5781 54.5781C43.5781 55.0469 43.9609 55.4297 44.4297 55.4297ZM43.75 65H45.1094V56.875H43.75V65ZM47.3828 54.9141V56.875H46.1719V57.9922H47.3828V62.8906C47.3828 64.4531 47.9609 65.0625 49.4531 65.0625C49.7734 65.0625 50.1484 65.0391 50.3125 65V63.8594C50.2188 63.875 49.9062 63.8984 49.75 63.8984C49.0547 63.8984 48.7422 63.5625 48.7422 62.8203V57.9922H50.3203V56.875H48.7422V54.9141H47.3828ZM58.2891 59.5391C58.1172 58.0781 56.9062 56.7344 54.875 56.7344C52.6328 56.7344 51.1406 58.375 51.1406 60.9375C51.1406 63.5547 52.6406 65.1406 54.8906 65.1406C56.7344 65.1406 58.0938 64 58.3047 62.3828H56.9688C56.7344 63.3594 56.0078 63.9453 54.8984 63.9453C53.4922 63.9453 52.5234 62.8281 52.5234 60.9375C52.5234 59.0938 53.4766 57.9297 54.8828 57.9297C56.0781 57.9297 56.7656 58.6562 56.9609 59.5391H58.2891ZM62.9219 65.1406C65.1641 65.1406 66.6797 63.5234 66.6797 60.9375C66.6797 58.3438 65.1641 56.7344 62.9219 56.7344C60.6719 56.7344 59.1562 58.3438 59.1562 60.9375C59.1562 63.5234 60.6719 65.1406 62.9219 65.1406ZM62.9219 63.9453C61.4844 63.9453 60.5391 62.8516 60.5391 60.9375C60.5391 59.0234 61.4844 57.9297 62.9219 57.9297C64.3594 57.9297 65.2969 59.0234 65.2969 60.9375C65.2969 62.8516 64.3594 63.9453 62.9219 63.9453ZM68.8047 55.4297C69.2812 55.4297 69.6562 55.0469 69.6562 54.5781C69.6562 54.1016 69.2812 53.7266 68.8047 53.7266C68.3359 53.7266 67.9531 54.1016 67.9531 54.5781C67.9531 55.0469 68.3359 55.4297 68.8047 55.4297ZM68.125 65H69.4844V56.875H68.125V65ZM71.3203 65H72.6797V60.2188C72.6797 58.8438 73.5156 57.9375 74.7969 57.9375C76.0469 57.9375 76.6641 58.6562 76.6641 59.9688V65H78.0234V59.7266C78.0234 57.8828 76.9922 56.7344 75.2109 56.7344C73.9531 56.7344 73.0859 57.2969 72.6328 58.1719H72.6016V56.875H71.3203V65Z" fill="white"/>
</svg>
