<svg width="111" height="83" viewBox="0 0 111 83" fill="none" xmlns="http://www.w3.org/2000/svg">
<rect width="111" height="83" rx="5" fill="#1A1D3D"/>
<path d="M72.3922 13H37.7899C35.7002 13 34.0001 14.7001 34.0001 16.7898V38.2102C34.0001 40.2999 35.7002 42 37.7899 42H72.3922C74.4818 42 76.1819 40.2999 76.1819 38.2102V16.7898C76.1819 14.7001 74.4818 13 72.3922 13ZM47.1819 24.5341C47.1819 26.1695 45.8515 27.5 44.216 27.5H42.2388C40.6033 27.5 39.2728 26.1695 39.2728 24.5341V22.5568C39.2728 20.9214 40.6033 19.5909 42.2388 19.5909H44.216C45.8515 19.5909 47.1819 20.9214 47.1819 22.5568V24.5341ZM64.1287 31.2659C63.843 31.2659 63.5553 31.1734 63.3135 30.9829C62.7418 30.5321 62.6436 29.7033 63.0944 29.1316C63.464 28.663 63.6592 28.0987 63.6592 27.5C63.6592 26.9013 63.464 26.337 63.0945 25.8683C62.6437 25.2967 62.7419 24.4678 63.3136 24.017C63.8853 23.5665 64.7142 23.6644 65.1649 24.2362C65.894 25.1612 66.2956 26.3203 66.2956 27.5C66.2956 28.6797 65.894 29.8388 65.1648 30.7637C64.9047 31.0937 64.5187 31.2659 64.1287 31.2659ZM68.3831 34.1005C68.1228 34.3905 67.763 34.5383 67.4016 34.5383C67.088 34.5383 66.7733 34.427 66.5216 34.2011C65.9798 33.715 65.9346 32.8815 66.4209 32.3397C67.6152 31.0088 68.2729 29.2901 68.2729 27.5C68.2729 25.7099 67.6152 23.9912 66.4209 22.6603C65.9346 22.1184 65.9798 21.285 66.5216 20.7989C67.0634 20.3127 67.8968 20.3577 68.3831 20.8995C70.012 22.7148 70.9092 25.059 70.9092 27.5C70.9092 29.941 70.012 32.2852 68.3831 34.1005Z" fill="#605EB7"/>
<path d="M25.0234 65.1875C27.5156 65.1875 29.1875 63.9453 29.7031 61.7188H28.2812C27.875 63.0938 26.6875 63.8906 25.0312 63.8906C22.8047 63.8906 21.3906 62.125 21.3906 59.3594C21.3906 56.6172 22.8203 54.8359 25.0234 54.8359C26.6328 54.8359 27.9219 55.8047 28.2812 57.2812H29.7031C29.3438 55.0312 27.4766 53.5391 25.0234 53.5391C21.9375 53.5391 19.9453 55.8203 19.9453 59.3594C19.9453 62.9297 21.9141 65.1875 25.0234 65.1875ZM31.1562 65H32.5156V59.9375C32.5156 58.7891 33.2031 58.0312 34.2578 58.0312C34.5859 58.0312 34.875 58.0703 34.9844 58.1094V56.7891C34.875 56.7734 34.6719 56.7344 34.4375 56.7344C33.4844 56.7344 32.7344 57.3047 32.4688 58.2031H32.4375V56.875H31.1562V65ZM41.0938 62.6719C40.8672 63.4375 40.1094 63.9609 39.0781 63.9609C37.6172 63.9609 36.7031 62.9375 36.7031 61.3828V61.3047H42.5312V60.7891C42.5312 58.3281 41.1797 56.7344 38.9844 56.7344C36.7422 56.7344 35.3047 58.4453 35.3047 60.9688C35.3047 63.5234 36.7188 65.1406 39.0469 65.1406C40.8203 65.1406 42.1953 64.0938 42.4297 62.6719H41.0938ZM38.9609 57.9141C40.2422 57.9141 41.0938 58.8828 41.125 60.2422H36.7109C36.7969 58.8906 37.6875 57.9141 38.9609 57.9141ZM46.9844 65.1406C48.1562 65.1406 49.0859 64.5625 49.6094 63.625H49.6328V65H50.9297V53.7266H49.5703V58.1953H49.5391C49.0547 57.3047 48.1172 56.7344 46.9531 56.7344C44.9062 56.7344 43.5078 58.3906 43.5078 60.9375C43.5078 63.4844 44.9141 65.1406 46.9844 65.1406ZM47.2422 57.9297C48.6406 57.9297 49.5781 59.125 49.5781 60.9375C49.5781 62.7578 48.6406 63.9453 47.2422 63.9453C45.8047 63.9453 44.8984 62.7812 44.8984 60.9375C44.8984 59.1016 45.8047 57.9297 47.2422 57.9297ZM53.5156 55.4297C53.9922 55.4297 54.3672 55.0469 54.3672 54.5781C54.3672 54.1016 53.9922 53.7266 53.5156 53.7266C53.0469 53.7266 52.6641 54.1016 52.6641 54.5781C52.6641 55.0469 53.0469 55.4297 53.5156 55.4297ZM52.8359 65H54.1953V56.875H52.8359V65ZM56.4688 54.9141V56.875H55.2578V57.9922H56.4688V62.8906C56.4688 64.4531 57.0469 65.0625 58.5391 65.0625C58.8594 65.0625 59.2344 65.0391 59.3984 65V63.8594C59.3047 63.875 58.9922 63.8984 58.8359 63.8984C58.1406 63.8984 57.8281 63.5625 57.8281 62.8203V57.9922H59.4062V56.875H57.8281V54.9141H56.4688ZM70.8906 59.5391C70.7188 58.0781 69.5078 56.7344 67.4766 56.7344C65.2344 56.7344 63.7422 58.375 63.7422 60.9375C63.7422 63.5547 65.2422 65.1406 67.4922 65.1406C69.3359 65.1406 70.6953 64 70.9062 62.3828H69.5703C69.3359 63.3594 68.6094 63.9453 67.5 63.9453C66.0938 63.9453 65.125 62.8281 65.125 60.9375C65.125 59.0938 66.0781 57.9297 67.4844 57.9297C68.6797 57.9297 69.3672 58.6562 69.5625 59.5391H70.8906ZM74.5312 65.1406C75.625 65.1406 76.6562 64.5312 77.1406 63.6016H77.1719V65H78.4609V59.3828C78.4609 57.7656 77.2578 56.7344 75.3516 56.7344C73.4297 56.7344 72.2266 57.8125 72.1328 59.2188H73.4453C73.6172 58.4219 74.2734 57.9297 75.3203 57.9297C76.4453 57.9297 77.1016 58.5234 77.1016 59.5156V60.1953L74.7734 60.3281C72.8984 60.4375 71.8281 61.3125 71.8281 62.7031C71.8281 64.1641 72.9141 65.1406 74.5312 65.1406ZM74.8359 63.9844C73.8594 63.9844 73.2109 63.4766 73.2109 62.7031C73.2109 61.9375 73.8359 61.4531 74.9297 61.3828L77.1016 61.25V61.9141C77.1016 63.0859 76.1172 63.9844 74.8359 63.9844ZM80.1875 65H81.5469V59.9375C81.5469 58.7891 82.2344 58.0312 83.2891 58.0312C83.6172 58.0312 83.9062 58.0703 84.0156 58.1094V56.7891C83.9062 56.7734 83.7031 56.7344 83.4688 56.7344C82.5156 56.7344 81.7656 57.3047 81.5 58.2031H81.4688V56.875H80.1875V65ZM87.8125 65.1406C88.9844 65.1406 89.9141 64.5625 90.4375 63.625H90.4609V65H91.7578V53.7266H90.3984V58.1953H90.3672C89.8828 57.3047 88.9453 56.7344 87.7812 56.7344C85.7344 56.7344 84.3359 58.3906 84.3359 60.9375C84.3359 63.4844 85.7422 65.1406 87.8125 65.1406ZM88.0703 57.9297C89.4688 57.9297 90.4062 59.125 90.4062 60.9375C90.4062 62.7578 89.4688 63.9453 88.0703 63.9453C86.6328 63.9453 85.7266 62.7812 85.7266 60.9375C85.7266 59.1016 86.6328 57.9297 88.0703 57.9297Z" fill="white"/>
</svg>
