<svg width="43" height="29" viewBox="0 0 43 29" fill="none" xmlns="http://www.w3.org/2000/svg">
<path d="M38.3922 0H3.7899C1.70025 0 0.00012207 1.70013 0.00012207 3.78977V25.2102C0.00012207 27.2999 1.70025 29 3.7899 29H38.3922C40.4818 29 42.1819 27.2999 42.1819 25.2102V3.78977C42.1819 1.70013 40.4818 0 38.3922 0ZM13.1819 11.5341C13.1819 13.1695 11.8515 14.5 10.216 14.5H8.23876C6.60331 14.5 5.27285 13.1695 5.27285 11.5341V9.55682C5.27285 7.92137 6.60331 6.59091 8.23876 6.59091H10.216C11.8515 6.59091 13.1819 7.92137 13.1819 9.55682V11.5341ZM30.1287 18.2659C29.843 18.2659 29.5553 18.1734 29.3135 17.9829C28.7418 17.5321 28.6436 16.7033 29.0944 16.1316C29.464 15.663 29.6592 15.0987 29.6592 14.5C29.6592 13.9013 29.464 13.337 29.0945 12.8683C28.6437 12.2967 28.7419 11.4678 29.3136 11.017C29.8853 10.5665 30.7142 10.6644 31.1649 11.2362C31.894 12.1612 32.2956 13.3203 32.2956 14.5C32.2956 15.6797 31.894 16.8388 31.1648 17.7637C30.9047 18.0937 30.5187 18.2659 30.1287 18.2659ZM34.3831 21.1005C34.1228 21.3905 33.763 21.5383 33.4016 21.5383C33.088 21.5383 32.7733 21.427 32.5216 21.2011C31.9798 20.715 31.9346 19.8815 32.4209 19.3397C33.6152 18.0088 34.2729 16.2901 34.2729 14.5C34.2729 12.7099 33.6152 10.9912 32.4209 9.6603C31.9346 9.11844 31.9798 8.28502 32.5216 7.79886C33.0634 7.3127 33.8968 7.35768 34.3831 7.89953C36.012 9.71484 36.9092 12.059 36.9092 14.5C36.9092 16.941 36.012 19.2852 34.3831 21.1005Z" fill="white"/>
</svg>
