<svg width="75" height="23" viewBox="0 0 75 23" fill="none" xmlns="http://www.w3.org/2000/svg">
<path d="M9.8184 7.13996C8.03829 7.13996 6.45288 7.69624 5.28469 8.781V1.82745H0V22.4656H5.28469V15.1783C5.28469 12.675 6.59196 11.618 8.28862 11.618C9.8184 11.618 10.7641 12.5359 10.7641 14.7054V22.4656H16.0488V13.8432C16.0488 9.1704 13.3508 7.13996 9.8184 7.13996Z" fill="white"/>
<path d="M33.4633 14.9557C33.4633 9.97701 29.8474 7.13996 25.3972 7.13996C20.6409 7.13996 17.1085 10.3664 17.1085 14.9001C17.1085 19.406 20.5853 22.7159 25.9534 22.7159C28.8183 22.7159 30.9322 21.8815 32.3785 20.2682L29.5971 17.3756C28.568 18.2656 27.5945 18.6828 26.1203 18.6828C24.1733 18.6828 22.8661 17.7928 22.421 16.263H33.3798C33.4076 15.8458 33.4633 15.3451 33.4633 14.9557ZM25.425 10.8949C27.066 10.8949 28.2342 11.8962 28.5123 13.4816H22.3376C22.6435 11.8962 23.7839 10.8949 25.425 10.8949Z" fill="white"/>
<path d="M44.1884 7.13996C42.2971 7.13996 40.6004 7.77969 39.4044 9.03132V7.39029H34.37V22.4656H39.6547V15.1783C39.6547 12.675 40.962 11.618 42.6587 11.618C44.1884 11.618 45.1341 12.5359 45.1341 14.7054V22.4656H50.4188V13.8432C50.4188 9.1704 47.7208 7.13996 44.1884 7.13996Z" fill="white"/>
<path d="M52.207 22.4656H57.4916V7.39029H52.207V22.4656Z" fill="white"/>
<path d="M75 22.4656L69.2425 14.7332L74.8053 7.39029H69.2147L66.4332 11.2008L63.7631 7.39029H57.8109L63.3737 14.9279L57.644 22.4656H63.3737L66.2664 18.516L68.9643 22.4656H75Z" fill="white"/>
<path d="M58.2449 2.72579C58.2449 4.39464 56.9654 5.61846 55.0184 5.61846C53.0714 5.61846 51.792 4.39464 51.792 2.80923C51.792 1.22382 53.0714 0 55.0184 0C56.9654 0 58.2449 1.14038 58.2449 2.72579Z" fill="white"/>
</svg>
