<svg width="39" height="39" viewBox="0 0 39 39" fill="none" xmlns="http://www.w3.org/2000/svg">
<path d="M0 0H34C36.7614 0 39 2.23858 39 5V34C39 36.7614 36.7614 39 34 39H0V0Z" fill="#00FFA3"/>
<path d="M22.6252 15.625L25.2502 13M26.7502 11.5L25.2502 13L26.7502 11.5ZM19.5427 18.7075C19.93 19.0896 20.2378 19.5445 20.4485 20.0461C20.6592 20.5477 20.7687 21.0859 20.7705 21.63C20.7723 22.174 20.6665 22.713 20.4591 23.216C20.2518 23.7189 19.947 24.1759 19.5623 24.5606C19.1776 24.9453 18.7206 25.2501 18.2177 25.4574C17.7147 25.6648 17.1757 25.7706 16.6317 25.7688C16.0877 25.7669 15.5494 25.6575 15.0478 25.4468C14.5462 25.2361 14.0913 24.9283 13.7092 24.541C12.9578 23.763 12.542 22.721 12.5514 21.6395C12.5608 20.5579 12.9946 19.5233 13.7595 18.7585C14.5243 17.9937 15.5589 17.5599 16.6404 17.5505C17.722 17.5411 18.764 17.9568 19.542 18.7083L19.5427 18.7075ZM19.5427 18.7075L22.6252 15.625L19.5427 18.7075ZM22.6252 15.625L24.8752 17.875L27.5002 15.25L25.2502 13L22.6252 15.625Z" stroke="#1A1D3D" stroke-width="2" stroke-linecap="round" stroke-linejoin="round"/>
</svg>
