<svg width="39" height="39" viewBox="0 0 39 39" fill="none" xmlns="http://www.w3.org/2000/svg">
<path d="M0 0H34C36.7614 0 39 2.23858 39 5V34C39 36.7614 36.7614 39 34 39H0V0Z" fill="#FF4141"/>
<g clip-path="url(#clip0)">
<path d="M22.0144 21.0213H17.9893C17.7366 21.0213 17.5298 21.2281 17.5298 21.4808C17.5298 21.7335 17.7366 21.9403 17.9893 21.9403H22.0144C22.2671 21.9403 22.4739 21.7335 22.4739 21.4808C22.4739 21.2281 22.2671 21.0213 22.0144 21.0213Z" fill="#1F2346"/>
<path d="M23.931 22.9052H16.0737C15.821 22.9052 15.6143 23.112 15.6143 23.3647C15.6143 23.6174 15.821 23.8242 16.0737 23.8242H23.931C24.1837 23.8242 24.3905 23.6174 24.3905 23.3647C24.3905 23.112 24.1837 22.9052 23.931 22.9052Z" fill="#1F2346"/>
<path d="M23.931 24.835H16.0737C15.821 24.835 15.6143 25.0418 15.6143 25.2945C15.6143 25.5472 15.821 25.754 16.0737 25.754H23.931C24.1837 25.754 24.3905 25.5472 24.3905 25.2945C24.3905 25.0418 24.1837 24.835 23.931 24.835Z" fill="#1F2346"/>
<path d="M26.7478 8.03153C26.5732 7.96261 26.3756 8.00856 26.247 8.151L25.2682 9.22161L24.2895 8.15559C24.1195 7.9672 23.83 7.95801 23.6417 8.12802C23.6325 8.13721 23.6233 8.1464 23.6141 8.15559L22.6354 9.22161L21.6567 8.151C21.4866 7.96261 21.1926 7.95342 21.0088 8.12343C20.9996 8.13262 20.9904 8.14181 20.9812 8.151L20.0025 9.21701L19.0238 8.151C18.8538 7.96261 18.5597 7.95342 18.3759 8.12343C18.3667 8.13262 18.3575 8.14181 18.3483 8.151L17.3696 9.21701L16.3909 8.151C16.2209 7.96261 15.9268 7.95342 15.743 8.12343C15.7338 8.13262 15.7246 8.14181 15.7155 8.151L14.7367 9.21701L13.7534 8.151C13.6294 8.01315 13.4318 7.96261 13.2572 8.03153C13.0826 8.10045 12.9677 8.27047 12.9723 8.45886V29.5402C12.9677 29.7884 13.1653 29.9951 13.4134 29.9997C13.5467 30.0043 13.6707 29.9492 13.758 29.8527L14.7367 28.7821L15.7155 29.8481C15.8855 30.0365 16.1749 30.0457 16.3633 29.8757C16.3725 29.8665 16.3817 29.8573 16.3909 29.8481L17.3696 28.7821L18.3483 29.8481C18.5183 30.0365 18.8124 30.0457 18.9962 29.8757C19.0054 29.8665 19.0146 29.8573 19.0238 29.8481L20.0025 28.7821L20.9812 29.8481C21.1512 30.0365 21.4453 30.0457 21.6291 29.8757C21.6383 29.8665 21.6475 29.8573 21.6567 29.8481L22.6354 28.7821L23.6141 29.8481C23.7841 30.0365 24.0782 30.0457 24.262 29.8757C24.2712 29.8665 24.2803 29.8573 24.2895 29.8481L25.2682 28.7821L26.247 29.8481C26.3343 29.9446 26.4583 29.9951 26.587 29.9951C26.6421 29.9951 26.6927 29.9859 26.7432 29.963C26.9178 29.8941 27.0327 29.724 27.0281 29.5357V8.45426C27.0373 8.27047 26.9224 8.10045 26.7478 8.03153ZM25.2728 27.638C25.1442 27.638 25.0201 27.6931 24.9328 27.7896L23.9541 28.8602L22.9754 27.7942C22.8054 27.6058 22.5113 27.5966 22.3275 27.7666C22.3183 27.7758 22.3091 27.785 22.2999 27.7942L21.3212 28.8602L20.3425 27.7942C20.1725 27.6058 19.8784 27.5966 19.6946 27.7666C19.6854 27.7758 19.6763 27.785 19.6671 27.7942L18.6884 28.8602L17.7096 27.7942C17.5396 27.6058 17.2456 27.5966 17.0618 27.7666C17.0526 27.7758 17.0434 27.785 17.0342 27.7942L16.0509 28.8602L15.0722 27.7896C14.9849 27.6931 14.8608 27.638 14.7321 27.638C14.6035 27.638 14.484 27.6931 14.4013 27.7896L13.8913 28.3594V9.63974L14.4013 10.2049C14.484 10.3014 14.6035 10.3565 14.7321 10.3565C14.8608 10.3565 14.9849 10.3014 15.0722 10.2049L16.0509 9.13431L17.0296 10.2003C17.1996 10.3887 17.4937 10.3979 17.6775 10.2279C17.6867 10.2187 17.6959 10.2095 17.705 10.2003L18.6838 9.13431L19.6625 10.2003C19.8325 10.3887 20.1266 10.3979 20.3104 10.2279C20.3195 10.2187 20.3287 10.2095 20.3379 10.2003L21.3166 9.13431L22.2954 10.2003C22.4654 10.3887 22.7594 10.3979 22.9432 10.2279C22.9524 10.2187 22.9616 10.2095 22.9708 10.2003L23.9495 9.13431L24.9282 10.2049C25.0155 10.3014 25.1396 10.3565 25.2682 10.3565C25.3969 10.3565 25.5164 10.3014 25.5991 10.2049L26.1137 9.63515V28.3548L25.6037 27.7896C25.521 27.6931 25.4015 27.638 25.2728 27.638Z" fill="#1F2346"/>
<path d="M21.4266 15.8613C21.229 15.241 20.6501 14.8228 20.0022 14.8228C19.6805 14.8228 19.4232 14.5655 19.4232 14.2439C19.4232 13.9222 19.6805 13.6695 19.9976 13.6649C20.3146 13.6603 20.5765 13.9222 20.5765 14.2439C20.5765 14.2439 20.5765 14.2439 20.5765 14.2485C20.5765 14.5012 20.7833 14.7079 21.036 14.7079C21.2888 14.7079 21.4955 14.5012 21.4955 14.2485C21.4955 13.6006 21.0774 13.0216 20.4571 12.824V12.5346C20.4571 12.2818 20.2503 12.0751 19.9976 12.0751C19.7449 12.0751 19.5381 12.2818 19.5381 12.5346V12.824C18.7524 13.0768 18.3205 13.9222 18.5732 14.7079C18.7708 15.3237 19.3497 15.7464 19.9976 15.7464C20.3146 15.7418 20.5765 15.9991 20.5811 16.3208C20.5857 16.6424 20.3284 16.8997 20.0068 16.9043C20.0068 16.8997 20.0068 16.8997 20.0022 16.8997C19.6851 16.8997 19.4232 16.6424 19.4232 16.3208C19.4232 16.068 19.2165 15.8613 18.9637 15.8613C18.711 15.8613 18.5043 16.068 18.5043 16.3208C18.5043 16.9686 18.9224 17.543 19.5427 17.7452V18.0392C19.5427 18.292 19.7495 18.4987 20.0022 18.4987C20.2549 18.4987 20.4617 18.292 20.4617 18.0392V17.7452C21.2474 17.4925 21.6793 16.647 21.4266 15.8613Z" fill="#1F2346"/>
</g>
<defs>
<clipPath id="clip0">
<rect width="22" height="22" fill="white" transform="translate(9 8)"/>
</clipPath>
</defs>
</svg>
