<svg width="111" height="83" viewBox="0 0 111 83" fill="none" xmlns="http://www.w3.org/2000/svg">
<rect width="111" height="83" rx="5" fill="#1A1D3D"/>
<path fill-rule="evenodd" clip-rule="evenodd" d="M48.8443 13H53.9029H54.3723H59.4026C62.7924 13 66.7341 15.4997 65.5583 20.997C64.5217 25.8526 60.6474 28.7084 56.0131 28.7084L53.5456 28.7082L53.5454 28.7084H52.9951C52.3308 28.7084 51.8908 29.2598 51.7869 29.9159L50.4513 38.3751L45.2193 38.375C44.5563 38.375 43.9073 37.8231 44.011 37.1667L47.636 14.2084C47.7396 13.5518 48.1797 13 48.8443 13ZM51.7868 29.9167L51.7869 29.9159L51.7868 29.9167ZM67.8532 21.8042C68.4853 22.9301 68.7372 24.413 68.3384 26.2771C67.4006 30.6702 63.8953 33.254 59.7022 33.254L58.7036 33.2507L58.7034 33.2509L58.1027 33.254C57.5016 33.2571 57.2064 33.7498 57.1124 34.3434L57.0482 34.75L56.0939 40.7945C55.9937 41.4228 55.5807 41.9577 54.9605 41.9975L51.1448 42C50.545 42.0004 49.9578 41.5007 50.0516 40.9068L50.0697 40.7917H52.5163L53.8025 32.6459L53.8375 32.6509L54.0554 31.1249L56.0129 31.1251C61.84 31.1254 66.5124 27.4531 67.8532 21.8042ZM57.1123 34.3441L57.1124 34.3434L57.1123 34.3441Z" fill="#605EB7"/>
<path d="M35.4922 53.7266V65H36.8984V60.9766H39.5C41.6172 60.9766 43.125 59.4844 43.125 57.3438C43.125 55.2109 41.6328 53.7266 39.5156 53.7266H35.4922ZM36.8984 54.9766H39.1484C40.7656 54.9766 41.6797 55.8516 41.6797 57.3438C41.6797 58.8438 40.7578 59.7266 39.1484 59.7266H36.8984V54.9766ZM46.2031 65.1406C47.2969 65.1406 48.3281 64.5312 48.8125 63.6016H48.8438V65H50.1328V59.3828C50.1328 57.7656 48.9297 56.7344 47.0234 56.7344C45.1016 56.7344 43.8984 57.8125 43.8047 59.2188H45.1172C45.2891 58.4219 45.9453 57.9297 46.9922 57.9297C48.1172 57.9297 48.7734 58.5234 48.7734 59.5156V60.1953L46.4453 60.3281C44.5703 60.4375 43.5 61.3125 43.5 62.7031C43.5 64.1641 44.5859 65.1406 46.2031 65.1406ZM46.5078 63.9844C45.5312 63.9844 44.8828 63.4766 44.8828 62.7031C44.8828 61.9375 45.5078 61.4531 46.6016 61.3828L48.7734 61.25V61.9141C48.7734 63.0859 47.7891 63.9844 46.5078 63.9844ZM52.5391 68.0391C54.0078 68.0391 54.6797 67.4688 55.375 65.5703L58.5703 56.875H57.1406L54.8906 63.6406H54.8672L52.6172 56.875H51.1641L54.1641 65.0078L53.9766 65.5781C53.6641 66.5234 53.2422 66.8906 52.4844 66.8906C52.3125 66.8906 52.1016 66.8828 51.9531 66.8516V67.9922C52.1016 68.0234 52.375 68.0391 52.5391 68.0391ZM59.8516 53.7266V65H61.2578V60.9766H63.8594C65.9766 60.9766 67.4844 59.4844 67.4844 57.3438C67.4844 55.2109 65.9922 53.7266 63.875 53.7266H59.8516ZM61.2578 54.9766H63.5078C65.125 54.9766 66.0391 55.8516 66.0391 57.3438C66.0391 58.8438 65.1172 59.7266 63.5078 59.7266H61.2578V54.9766ZM70.5625 65.1406C71.6562 65.1406 72.6875 64.5312 73.1719 63.6016H73.2031V65H74.4922V59.3828C74.4922 57.7656 73.2891 56.7344 71.3828 56.7344C69.4609 56.7344 68.2578 57.8125 68.1641 59.2188H69.4766C69.6484 58.4219 70.3047 57.9297 71.3516 57.9297C72.4766 57.9297 73.1328 58.5234 73.1328 59.5156V60.1953L70.8047 60.3281C68.9297 60.4375 67.8594 61.3125 67.8594 62.7031C67.8594 64.1641 68.9453 65.1406 70.5625 65.1406ZM70.8672 63.9844C69.8906 63.9844 69.2422 63.4766 69.2422 62.7031C69.2422 61.9375 69.8672 61.4531 70.9609 61.3828L73.1328 61.25V61.9141C73.1328 63.0859 72.1484 63.9844 70.8672 63.9844ZM76.2891 65H77.6484V53.7266H76.2891V65Z" fill="white"/>
</svg>
