<svg width="25" height="29" viewBox="0 0 25 29" fill="none" xmlns="http://www.w3.org/2000/svg">
<path fill-rule="evenodd" clip-rule="evenodd" d="M4.84431 0H9.90288H10.3723H15.4026C18.7924 0 22.7341 2.49973 21.5583 7.99696C20.5217 12.8526 16.6474 15.7084 12.0131 15.7084L9.5456 15.7082L9.54537 15.7084H8.9951C8.33084 15.7084 7.89077 16.2598 7.78693 16.9159L6.4513 25.3751L1.21933 25.375C0.556268 25.375 -0.0927342 24.8231 0.0109706 24.1667L3.636 1.20836C3.73961 0.55184 4.17972 0 4.84431 0ZM7.78679 16.9167L7.78693 16.9159L7.78679 16.9167ZM23.8532 8.80419C24.4853 9.9301 24.7372 11.413 24.3384 13.2771C23.4006 17.6702 19.8953 20.254 15.7022 20.254L14.7036 20.2507L14.7034 20.2509L14.1027 20.254C13.5016 20.2571 13.2064 20.7498 13.1124 21.3434L13.0482 21.75L12.0939 27.7945C11.9937 28.4228 11.5807 28.9577 10.9605 28.9975L7.14484 29C6.54498 29.0004 5.95778 28.5007 6.05156 27.9068L6.06975 27.7917H8.51634L9.80247 19.6459L9.83745 19.6509L10.0554 18.1249L12.0129 18.1251C17.84 18.1254 22.5124 14.4531 23.8532 8.80419ZM13.1123 21.3441L13.1124 21.3434L13.1123 21.3441Z" fill="#605EB7"/>
</svg>
